<?xml version="1.0" encoding="UTF-8"?>
<!DOCTYPE svg PUBLIC "-//W3C//DTD SVG 1.1//EN" "http://www.w3.org/Graphics/SVG/1.1/DTD/svg11.dtd">
<svg xmlns="http://www.w3.org/2000/svg" version="1.1" width="549px" height="107px" style="shape-rendering:geometricPrecision; text-rendering:geometricPrecision; image-rendering:optimizeQuality; fill-rule:evenodd; clip-rule:evenodd" xmlns:xlink="http://www.w3.org/1999/xlink">
<g><path style="opacity:1" fill="#154984" d="M -0.5,62.5 C -0.5,54.1667 -0.5,45.8333 -0.5,37.5C 1.99058,33.5876 5.65725,31.7543 10.5,32C 13.8333,28 17.1667,24 20.5,20C 24.2036,17.8417 27.5369,18.3417 30.5,21.5C 32.704,17.5927 35.0374,13.7594 37.5,10C 41.3877,7.77748 44.8877,8.27748 48,11.5C 56.2535,25.6719 64.2535,40.0052 72,54.5C 79.7465,40.0052 87.7465,25.6719 96,11.5C 100,7.5 104,7.5 108,11.5C 109.579,14.9939 111.413,18.3272 113.5,21.5C 116.463,18.3417 119.796,17.8417 123.5,20C 126.833,24 130.167,28 133.5,32C 138.247,31.6219 141.747,33.4553 144,37.5C 144.667,45.8333 144.667,54.1667 144,62.5C 142.833,63.6667 141.667,64.8333 140.5,66C 121.66,76.5875 102.66,86.9208 83.5,97C 75.8333,97.6667 68.1667,97.6667 60.5,97C 39.7649,86.0726 19.4315,74.5726 -0.5,62.5 Z"/></g>
<g><path style="opacity:1" fill="#edf3f7" d="M 62.5,57.5 C 54.9139,45.9074 46.9139,34.5741 38.5,23.5C 39.1283,20.91 40.295,18.5766 42,16.5C 50.3333,31.1667 58.6667,45.8333 67,60.5C 67.6667,61.5 67.6667,62.5 67,63.5C 65.2273,61.5805 63.7273,59.5805 62.5,57.5 Z"/></g>
<g><path style="opacity:1" fill="#eef4f8" d="M 105.5,23.5 C 96.9986,34.5117 88.9986,45.845 81.5,57.5C 79.6753,59.8031 77.8419,62.1364 76,64.5C 84.0756,48.3604 92.7423,32.3604 102,16.5C 103.705,18.5766 104.872,20.91 105.5,23.5 Z"/></g>
<g><path style="opacity:1" fill="#78bce7" d="M 38.5,23.5 C 46.9139,34.5741 54.9139,45.9074 62.5,57.5C 53.4967,48.6616 44.9967,39.3283 37,29.5C 36.2615,27.1195 36.7615,25.1195 38.5,23.5 Z"/></g>
<g><path style="opacity:1" fill="#78bce6" d="M 105.5,23.5 C 106.601,24.8484 107.601,26.3484 108.5,28C 99.8331,38.191 90.8331,48.0244 81.5,57.5C 88.9986,45.845 96.9986,34.5117 105.5,23.5 Z"/></g>
<g><path style="opacity:1" fill="#f5f7f9" d="M 23.5,26.5 C 38.4728,41.8127 52.8061,57.8127 66.5,74.5C 66.1667,74.8333 65.8333,75.1667 65.5,75.5C 49.4233,63.0454 33.2566,50.7121 17,38.5C 16.3333,37.5 16.3333,36.5 17,35.5C 20.1662,33.147 22.3328,30.147 23.5,26.5 Z"/></g>
<g><path style="opacity:1" fill="#f5f7f9" d="M 118.5,27.5 C 119.239,27.369 119.906,27.5357 120.5,28C 122.293,30.7953 124.46,33.2953 127,35.5C 127.667,36.5 127.667,37.5 127,38.5C 111.077,50.5456 95.2432,62.7122 79.5,75C 78.5,75.6667 77.5,75.6667 76.5,75C 90.3365,58.9984 104.337,43.165 118.5,27.5 Z"/></g>
<g><path style="opacity:1" fill="#b6d7ec" d="M 216.5,28.5 C 219.625,27.5206 222.958,27.1872 226.5,27.5C 226.5,43.1667 226.5,58.8333 226.5,74.5C 223.833,74.5 221.167,74.5 218.5,74.5C 218.5,73.1667 218.5,71.8333 218.5,70.5C 219.404,71.209 219.737,72.209 219.5,73.5C 221.5,73.5 223.5,73.5 225.5,73.5C 225.5,58.5 225.5,43.5 225.5,28.5C 222.833,28.5 220.167,28.5 217.5,28.5C 217.167,28.5 216.833,28.5 216.5,28.5 Z"/></g>
<g><path style="opacity:1" fill="#0d76bf" d="M 188.5,29.5 C 189.833,31.8333 189.833,34.1667 188.5,36.5C 181.167,36.5 173.833,36.5 166.5,36.5C 166.185,40.3714 166.518,44.0381 167.5,47.5C 173.5,47.5 179.5,47.5 185.5,47.5C 185.5,49.8333 185.5,52.1667 185.5,54.5C 178.978,54.1765 172.645,54.5098 166.5,55.5C 166.5,59.1667 166.5,62.8333 166.5,66.5C 173.833,66.5 181.167,66.5 188.5,66.5C 188.5,68.8333 188.5,71.1667 188.5,73.5C 178.5,73.5 168.5,73.5 158.5,73.5C 158.5,58.8333 158.5,44.1667 158.5,29.5C 168.5,29.5 178.5,29.5 188.5,29.5 Z"/></g>
<g><path style="opacity:1" fill="#1377c0" d="M 217.5,28.5 C 220.167,28.5 222.833,28.5 225.5,28.5C 225.5,43.5 225.5,58.5 225.5,73.5C 223.5,73.5 221.5,73.5 219.5,73.5C 219.737,72.209 219.404,71.209 218.5,70.5C 218.062,69.4937 217.396,69.4937 216.5,70.5C 213.519,70.2056 212.852,68.8722 214.5,66.5C 217.58,59.9492 216.914,53.9492 212.5,48.5C 210.958,47.8365 209.291,47.1698 207.5,46.5C 209.341,45.7696 211.175,45.1029 213,44.5C 213.359,47.5443 214.026,47.8776 215,45.5C 215.414,45.9574 215.914,46.2907 216.5,46.5C 217.496,40.5368 217.829,34.5368 217.5,28.5 Z"/></g>
<g><path style="opacity:1" fill="#8cc0e1" d="M 301.5,29.5 C 291.5,29.5 281.5,29.5 271.5,29.5C 271.5,44.1667 271.5,58.8333 271.5,73.5C 274.167,73.5 276.833,73.5 279.5,73.5C 279.177,67.31 279.51,61.31 280.5,55.5C 280.5,61.8333 280.5,68.1667 280.5,74.5C 277.167,74.5 273.833,74.5 270.5,74.5C 270.5,59.1667 270.5,43.8333 270.5,28.5C 281.014,28.1724 291.347,28.5058 301.5,29.5 Z"/></g>
<g><path style="opacity:1" fill="#0e76bf" d="M 301.5,29.5 C 301.5,31.8333 301.5,34.1667 301.5,36.5C 294.167,36.5 286.833,36.5 279.5,36.5C 279.5,40.5 279.5,44.5 279.5,48.5C 285.833,48.5 292.167,48.5 298.5,48.5C 299.468,50.6074 299.802,52.9407 299.5,55.5C 293.167,55.5 286.833,55.5 280.5,55.5C 279.51,61.31 279.177,67.31 279.5,73.5C 276.833,73.5 274.167,73.5 271.5,73.5C 271.5,58.8333 271.5,44.1667 271.5,29.5C 281.5,29.5 291.5,29.5 301.5,29.5 Z"/></g>
<g><path style="opacity:1" fill="#faf35a" d="M 385.5,28.5 C 388.518,28.3354 391.518,28.502 394.5,29C 400.56,43.8445 406.226,58.8445 411.5,74C 408.118,74.8236 404.784,74.657 401.5,73.5C 400.199,70.5729 399.199,67.5729 398.5,64.5C 393.238,64.8047 388.072,64.4714 383,63.5C 381.301,66.935 379.801,70.435 378.5,74C 375.518,74.498 372.518,74.6646 369.5,74.5C 374.234,58.9655 379.567,43.6321 385.5,28.5 Z M 389.5,39.5 C 391.865,44.2408 393.865,49.2408 395.5,54.5C 391.878,55.6586 388.211,55.8253 384.5,55C 386.668,49.9968 388.334,44.8302 389.5,39.5 Z"/></g>
<g><path style="opacity:1" fill="#faf352" d="M 416.5,27.5 C 419.5,27.5 422.5,27.5 425.5,27.5C 425.333,40.1711 425.5,52.8377 426,65.5C 427.049,67.1066 428.549,67.7733 430.5,67.5C 430.5,69.8333 430.5,72.1667 430.5,74.5C 425.151,75.5386 420.651,74.2053 417,70.5C 416.5,56.1705 416.333,41.8372 416.5,27.5 Z"/></g>
<g><path style="opacity:1" fill="#faf352" d="M 436.5,27.5 C 439.5,27.5 442.5,27.5 445.5,27.5C 445.333,40.1711 445.5,52.8377 446,65.5C 447.589,67.0264 449.423,68.1931 451.5,69C 450.826,70.7506 450.493,72.4173 450.5,74C 445.16,75.534 440.66,74.3674 437,70.5C 436.5,56.1705 436.333,41.8372 436.5,27.5 Z"/></g>
<g><path style="opacity:1" fill="#95c5e4" d="M 188.5,36.5 C 181.687,37.4912 174.687,37.8245 167.5,37.5C 167.5,40.8333 167.5,44.1667 167.5,47.5C 166.518,44.0381 166.185,40.3714 166.5,36.5C 173.833,36.5 181.167,36.5 188.5,36.5 Z"/></g>
<g><path style="opacity:1" fill="#3382c5" d="M 216.5,28.5 C 216.833,28.5 217.167,28.5 217.5,28.5C 217.829,34.5368 217.496,40.5368 216.5,46.5C 215.914,46.2907 215.414,45.9574 215,45.5C 214.026,47.8776 213.359,47.5443 213,44.5C 211.175,45.1029 209.341,45.7696 207.5,46.5C 209.291,47.1698 210.958,47.8365 212.5,48.5C 205.615,47.8867 202.615,51.0534 203.5,58C 203.329,66.0077 206.996,68.8411 214.5,66.5C 212.852,68.8722 213.519,70.2056 216.5,70.5C 211.994,75.8195 206.661,76.6528 200.5,73C 191.55,63.3282 191.217,53.3282 199.5,43C 205.272,39.9497 210.772,40.4497 216,44.5C 216.499,39.1771 216.666,33.8437 216.5,28.5 Z"/></g>
<g><path style="opacity:1" fill="#2f80c4" d="M 320.5,40.5 C 331.397,41.2308 337.064,47.0641 337.5,58C 336.166,71.662 328.832,76.9953 315.5,74C 308.898,70.8126 305.565,65.4793 305.5,58C 306.007,48.0774 311.007,42.244 320.5,40.5 Z M 319.5,48.5 C 323.182,47.7253 325.682,49.0586 327,52.5C 327.996,57.2288 327.496,61.7288 325.5,66C 318.524,68.3835 315.191,65.7168 315.5,58C 315.217,53.9805 316.55,50.8138 319.5,48.5 Z"/></g>
<g><path style="opacity:1" fill="#85bcdf" d="M 242.5,64.5 C 241.508,57.3524 241.175,50.0191 241.5,42.5C 238.833,42.5 236.167,42.5 233.5,42.5C 233.5,50.5 233.5,58.5 233.5,66.5C 232.507,58.3501 232.174,50.0168 232.5,41.5C 235.833,41.5 239.167,41.5 242.5,41.5C 242.5,49.1667 242.5,56.8333 242.5,64.5 Z"/></g>
<g><path style="opacity:1" fill="#86bde0" d="M 353.5,45.5 C 353.013,46.4734 352.513,47.4734 352,48.5C 351.505,46.5273 351.338,44.5273 351.5,42.5C 348.833,42.5 346.167,42.5 343.5,42.5C 343.5,52.8333 343.5,63.1667 343.5,73.5C 346.167,73.5 348.833,73.5 351.5,73.5C 351.177,66.9779 351.51,60.6446 352.5,54.5C 352.5,61.1667 352.5,67.8333 352.5,74.5C 349.167,74.5 345.833,74.5 342.5,74.5C 342.5,63.5 342.5,52.5 342.5,41.5C 345.833,41.5 349.167,41.5 352.5,41.5C 352.232,43.099 352.566,44.4324 353.5,45.5 Z"/></g>
<g><path style="opacity:1" fill="#62a8d7" d="M 362.5,41.5 C 363.477,44.2869 363.81,47.2869 363.5,50.5C 361.167,50.5 358.833,50.5 356.5,50.5C 358.265,49.5386 360.265,49.2053 362.5,49.5C 362.5,46.8333 362.5,44.1667 362.5,41.5 Z"/></g>
<g><path style="opacity:1" fill="#307fc4" d="M 255.5,72.5 C 255.762,71.0222 255.429,69.6888 254.5,68.5C 253.702,68.9569 253.369,69.6236 253.5,70.5C 253.586,71.4959 253.252,72.3292 252.5,73C 245.482,76.5389 239.315,75.3722 234,69.5C 233.517,68.552 233.351,67.552 233.5,66.5C 233.5,58.5 233.5,50.5 233.5,42.5C 236.167,42.5 238.833,42.5 241.5,42.5C 241.175,50.0191 241.508,57.3524 242.5,64.5C 244.814,67.6142 247.814,68.2809 251.5,66.5C 252.192,65.9747 252.692,65.3081 253,64.5C 253.5,56.8406 253.666,49.1739 253.5,41.5C 256.777,41.2161 259.943,41.5495 263,42.5C 263.667,52.8333 263.667,63.1667 263,73.5C 261.769,74.1078 260.436,74.4411 259,74.5C 257.319,74.3917 256.152,73.7251 255.5,72.5 Z"/></g>
<g><path style="opacity:1" fill="#1075bf" d="M 362.5,41.5 C 362.5,44.1667 362.5,46.8333 362.5,49.5C 360.265,49.2053 358.265,49.5386 356.5,50.5C 354.833,51.5 353.5,52.8333 352.5,54.5C 351.51,60.6446 351.177,66.9779 351.5,73.5C 348.833,73.5 346.167,73.5 343.5,73.5C 343.5,63.1667 343.5,52.8333 343.5,42.5C 346.167,42.5 348.833,42.5 351.5,42.5C 351.338,44.5273 351.505,46.5273 352,48.5C 352.513,47.4734 353.013,46.4734 353.5,45.5C 355.867,42.173 358.867,40.8396 362.5,41.5 Z"/></g>
<g><path style="opacity:1" fill="#8bc0e1" d="M 301.5,36.5 C 294.687,37.4912 287.687,37.8245 280.5,37.5C 280.5,40.8333 280.5,44.1667 280.5,47.5C 286.69,47.1771 292.69,47.5104 298.5,48.5C 292.167,48.5 285.833,48.5 279.5,48.5C 279.5,44.5 279.5,40.5 279.5,36.5C 286.833,36.5 294.167,36.5 301.5,36.5 Z"/></g>
<g><path style="opacity:1" fill="#0075bd" d="M 8.5,41.5 C 7.35472,45.3112 7.18806,49.3112 8,53.5C 25.9166,64.2077 43.7499,75.0411 61.5,86C 68.5,86.6667 75.5,86.6667 82.5,86C 100.25,75.0411 118.083,64.2077 136,53.5C 136.812,49.3112 136.645,45.3112 135.5,41.5C 135.56,40.9569 135.893,40.6236 136.5,40.5C 137.833,46.8333 137.833,53.1667 136.5,59.5C 118.66,69.5874 100.66,79.4207 82.5,89C 75.5,89.6667 68.5,89.6667 61.5,89C 43.3399,79.4207 25.3399,69.5874 7.5,59.5C 6.16667,53.1667 6.16667,46.8333 7.5,40.5C 8.10667,40.6236 8.44001,40.9569 8.5,41.5 Z"/></g>
<g><path style="opacity:1" fill="#009ad8" d="M 8.5,41.5 C 26.3401,55.168 44.3401,68.668 62.5,82C 68.8333,82.6667 75.1667,82.6667 81.5,82C 99.6599,68.668 117.66,55.168 135.5,41.5C 136.645,45.3112 136.812,49.3112 136,53.5C 118.083,64.2077 100.25,75.0411 82.5,86C 75.5,86.6667 68.5,86.6667 61.5,86C 43.7499,75.0411 25.9166,64.2077 8,53.5C 7.18806,49.3112 7.35472,45.3112 8.5,41.5 Z"/></g>
<g><path style="opacity:1" fill="#6fafda" d="M 185.5,47.5 C 186.473,49.9479 186.806,52.6146 186.5,55.5C 180.167,55.5 173.833,55.5 167.5,55.5C 167.167,55.5 166.833,55.5 166.5,55.5C 172.645,54.5098 178.978,54.1765 185.5,54.5C 185.5,52.1667 185.5,49.8333 185.5,47.5 Z"/></g>
<g><path style="opacity:1" fill="#bad9ed" d="M 166.5,55.5 C 166.833,55.5 167.167,55.5 167.5,55.5C 167.5,58.8333 167.5,62.1667 167.5,65.5C 174.687,65.1755 181.687,65.5088 188.5,66.5C 181.167,66.5 173.833,66.5 166.5,66.5C 166.5,62.8333 166.5,59.1667 166.5,55.5 Z"/></g>
<g><path style="opacity:1" fill="#a0cae6" d="M 255.5,72.5 C 254.833,71.8333 254.167,71.1667 253.5,70.5C 253.369,69.6236 253.702,68.9569 254.5,68.5C 255.429,69.6888 255.762,71.0222 255.5,72.5 Z"/></g>
<g><path style="opacity:1" fill="#89bee0" d="M 188.5,29.5 C 178.5,29.5 168.5,29.5 158.5,29.5C 158.5,44.1667 158.5,58.8333 158.5,73.5C 168.5,73.5 178.5,73.5 188.5,73.5C 188.5,71.1667 188.5,68.8333 188.5,66.5C 189.473,68.9479 189.806,71.6146 189.5,74.5C 178.833,74.5 168.167,74.5 157.5,74.5C 157.5,59.1667 157.5,43.8333 157.5,28.5C 168.014,28.1724 178.347,28.5058 188.5,29.5 Z"/></g>
</svg>
